<svg width="446" height="610" viewBox="0 0 446 610" fill="none" xmlns="http://www.w3.org/2000/svg">
<path d="M71.5066 9.49854C108.524 2.28832 159.038 14.1657 208.417 11.3307C255.409 8.63159 324.361 -9.84335 378.551 10.273C430.315 35.2935 443.947 77.3845 443.822 162.121C443.671 265.688 446.698 246.164 443.594 315.556C439.438 408.517 442.848 486.206 433.188 527.487C420.491 581.739 389.973 575.3 348.083 589.651C308.018 603.136 220.813 607.129 220.813 607.129C220.813 607.129 124.993 612.632 85.0363 604.763C42.8707 596.509 42.751 603.419 32.2333 558.126C21.7155 512.836 21.1009 492.176 14.654 404.298C14.0939 358.329 8.18046 229.308 1.84 138.332C-4.81708 42.8072 28.9898 17.7838 71.5066 9.49854Z" stroke="#FFC517" stroke-width="2" stroke-linecap="round" stroke-linejoin="round" stroke-dasharray="6 15"/>
</svg>
